<svg width="160" height="80" viewBox="0 0 160 80" fill="none" xmlns="http://www.w3.org/2000/svg">
<rect width="80" height="80" transform="translate(80 80) rotate(-180)" fill="#EFEDEA"/>
<path d="M51.2502 40.625C51.2502 40.9565 51.1185 41.2745 50.8841 41.5089C50.6496 41.7433 50.3317 41.875 50.0002 41.875L33.0127 41.875L34.6377 43.4875C34.8731 43.7229 35.0053 44.0421 35.0053 44.375C35.0053 44.7079 34.8731 45.0271 34.6377 45.2625C34.4023 45.4979 34.0831 45.6301 33.7502 45.6301C33.4173 45.6301 33.0981 45.4979 32.8627 45.2625L29.1127 41.5125C28.9392 41.3367 28.8217 41.1135 28.775 40.871C28.7283 40.6285 28.7545 40.3777 28.8502 40.15C28.9439 39.9217 29.1032 39.7263 29.3078 39.5884C29.5125 39.4505 29.7534 39.3762 30.0002 39.375L50.0002 39.375C50.3317 39.375 50.6496 39.5067 50.8841 39.7411C51.1185 39.9756 51.2502 40.2935 51.2502 40.625Z" fill="#909090"/>
<path d="M34.9997 36.875C35.0007 37.0395 34.9692 37.2026 34.907 37.3549C34.8448 37.5072 34.7531 37.6457 34.6372 37.7625L30.8872 41.5125C30.6519 41.7479 30.3326 41.8801 29.9997 41.8801C29.8349 41.8801 29.6717 41.8477 29.5194 41.7846C29.3672 41.7215 29.2288 41.6291 29.1122 41.5125C28.9957 41.396 28.9032 41.2576 28.8402 41.1053C28.7771 40.953 28.7446 40.7898 28.7446 40.625C28.7446 40.2921 28.8769 39.9729 29.1122 39.7375L32.8622 35.9875C32.9784 35.8704 33.1167 35.7774 33.269 35.7139C33.4213 35.6504 33.5847 35.6178 33.7497 35.6178C33.9148 35.6178 34.0781 35.6504 34.2305 35.7139C34.3828 35.7774 34.521 35.8704 34.6372 35.9875C34.7531 36.1043 34.8448 36.2428 34.907 36.3951C34.9692 36.5474 35.0007 36.7105 34.9997 36.875Z" fill="#909090"/>
<rect width="80" height="80" transform="translate(80)" fill="#9B9A78"/>
<path d="M108.75 39.375C108.75 39.0435 108.882 38.7255 109.116 38.4911C109.35 38.2567 109.668 38.125 110 38.125L126.987 38.125L125.362 36.5125C125.127 36.2771 124.995 35.9579 124.995 35.625C124.995 35.2921 125.127 34.9729 125.362 34.7375C125.598 34.5021 125.917 34.3699 126.25 34.3699C126.583 34.3699 126.902 34.5021 127.137 34.7375L130.887 38.4875C131.061 38.6633 131.178 38.8865 131.225 39.129C131.272 39.3715 131.246 39.6223 131.15 39.85C131.056 40.0783 130.897 40.2737 130.692 40.4116C130.488 40.5495 130.247 40.6238 130 40.625L110 40.625C109.668 40.625 109.35 40.4933 109.116 40.2589C108.882 40.0244 108.75 39.7065 108.75 39.375Z" fill="white"/>
<path d="M125 43.125C124.999 42.9605 125.031 42.7974 125.093 42.6451C125.155 42.4928 125.247 42.3543 125.363 42.2375L129.113 38.4875C129.348 38.2521 129.667 38.1199 130 38.1199C130.165 38.1199 130.328 38.1523 130.481 38.2154C130.633 38.2785 130.771 38.3709 130.888 38.4875C131.004 38.604 131.097 38.7424 131.16 38.8947C131.223 39.047 131.255 39.2102 131.255 39.375C131.255 39.7079 131.123 40.0271 130.888 40.2625L127.138 44.0125C127.022 44.1296 126.883 44.2226 126.731 44.2861C126.579 44.3496 126.415 44.3822 126.25 44.3822C126.085 44.3822 125.922 44.3496 125.77 44.2861C125.617 44.2226 125.479 44.1296 125.363 44.0125C125.247 43.8957 125.155 43.7572 125.093 43.6049C125.031 43.4526 124.999 43.2895 125 43.125Z" fill="white"/>
</svg>
